<svg width="24" height="24" viewBox="0 0 24 24" fill="none" xmlns="http://www.w3.org/2000/svg">
<path opacity="0.4" d="M22 7.81V15.16C21.71 15.02 21.39 14.92 21.03 14.86L20.72 14.81L20.46 14.27C19.91 13.15 19.01 12.5 18 12.5C16.99 12.5 16.09 13.15 15.54 14.27L15.27 14.81L14.97 14.86C13.78 15.06 12.92 15.72 12.61 16.66C12.31 17.61 12.62 18.65 13.47 19.51L13.78 19.82L13.75 19.94C13.55 20.83 13.63 21.51 13.82 22H7.81C4.17 22 2 19.83 2 16.19V7.81C2 4.17 4.17 2 7.81 2H16.19C19.83 2 22 4.17 22 7.81Z" fill="#8B83BA"/>
<path d="M19.12 14.9399L19.44 15.5899C19.6 15.9099 20.01 16.2099 20.35 16.2699L20.78 16.3399C22.09 16.5599 22.39 17.5199 21.46 18.4599L21.06 18.8599C20.79 19.1299 20.65 19.6499 20.73 20.0299L20.78 20.2699C21.14 21.8499 20.3 22.4599 18.93 21.6299L18.64 21.4499C18.29 21.2399 17.71 21.2399 17.36 21.4499L17.07 21.6299C15.69 22.4599 14.86 21.8499 15.22 20.2699L15.27 20.0299C15.35 19.6599 15.21 19.1299 14.94 18.8599L14.54 18.4599C13.61 17.5099 13.91 16.5599 15.22 16.3399L15.65 16.2699C16 16.2099 16.4 15.9099 16.56 15.5899L16.88 14.9399C17.5 13.6899 18.5 13.6899 19.12 14.9399Z" fill="#8B83BA"/>
<path fill-rule="evenodd" clip-rule="evenodd" d="M16.1295 7.91728C16.4569 8.17106 16.5165 8.64217 16.2628 8.96954L13.9483 11.9552C13.3534 12.7076 12.2566 12.8448 11.4914 12.2535L11.4862 12.2495L9.65963 10.8121C9.54678 10.7264 9.38939 10.7478 9.30369 10.8583C9.30361 10.8584 9.30377 10.8582 9.30369 10.8583L6.92417 13.9477C6.67141 14.2759 6.20049 14.337 5.87233 14.0842C5.54417 13.8315 5.48305 13.3606 5.7358 13.0324L8.11653 9.94146C8.71044 9.17287 9.81165 9.03396 10.5786 9.62658L10.5838 9.63062L12.4104 11.0679C12.5244 11.1546 12.6851 11.1322 12.7702 11.0267L15.0773 8.05055C15.331 7.72318 15.8021 7.66351 16.1295 7.91728Z" fill="#8B83BA"/>
</svg>
