<svg width="24" height="24" viewBox="0 0 24 24" fill="none" xmlns="http://www.w3.org/2000/svg">
<path d="M19.75 15.41L18.9 14.56C19.34 13.89 19.6 13.1 19.6 12.24C19.6 9.89999 17.7 8 15.36 8C13.02 8 11.12 9.89999 11.12 12.24C11.12 14.58 13.02 16.48 15.36 16.48C16.22 16.48 17.02 16.22 17.68 15.78L18.53 16.63C18.7 16.8 18.92 16.88 19.14 16.88C19.36 16.88 19.58 16.8 19.75 16.63C20.08 16.29 20.08 15.74 19.75 15.41Z" fill="#8B83BA"/>
<path opacity="0.4" d="M5.40997 2H18.58C19.68 2 20.58 2.90999 20.58 4.01999V6.23999C20.58 7.04999 20.08 8.06 19.58 8.56L15.29 12.4C14.69 12.91 14.29 13.92 14.29 14.72V19.06C14.29 19.67 13.89 20.47 13.39 20.78L11.99 21.69C10.69 22.5 8.90002 21.59 8.90002 19.97V14.62C8.90002 13.91 8.49998 13 8.09998 12.5L4.31 8.45999C3.81 7.94999 3.40997 7.05 3.40997 6.44V4.12C3.41997 2.91 4.31997 2 5.40997 2Z" fill="#8B83BA"/>
</svg>
