<svg width="23" height="20" viewBox="0 0 23 20" fill="none" xmlns="http://www.w3.org/2000/svg">
<path d="M11.2375 7.80488C12.5568 7.80488 13.6122 8.78049 13.6122 10C13.6122 11.2195 12.5568 12.1951 11.2375 12.1951C9.91826 12.1951 8.86285 11.2195 8.86285 10C8.86285 8.78049 9.91826 7.80488 11.2375 7.80488ZM8.86285 2.19512C8.86285 3.41463 9.91826 4.39024 11.2375 4.39024C12.5568 4.39024 13.6122 3.41463 13.6122 2.19512C13.6122 0.97561 12.5568 0 11.2375 0C9.91826 0 8.86285 0.97561 8.86285 2.19512ZM8.86285 17.8049C8.86285 19.0244 9.91826 20 11.2375 20C12.5568 20 13.6122 19.0244 13.6122 17.8049C13.6122 16.5854 12.5568 15.6098 11.2375 15.6098C9.91826 15.6098 8.86285 16.5854 8.86285 17.8049Z" fill="#8B83BA"/>
</svg>
