<svg width="28" height="28" viewBox="0 0 28 28" fill="none" xmlns="http://www.w3.org/2000/svg">
<path d="M14.0362 7.20067C10.325 7.20067 7.308 10.2177 7.30683 13.9277C7.30567 15.442 7.75017 16.576 8.49567 17.7625L7.81667 20.2452L10.3623 19.5767C11.5033 20.2533 12.5918 20.6593 14.0315 20.6605C17.7392 20.6605 20.7597 17.6423 20.7608 13.9335C20.762 10.2153 17.7567 7.20183 14.0362 7.20067ZM17.9935 16.8187C17.8255 17.2912 17.017 17.7217 16.6285 17.78C16.2797 17.8325 15.8387 17.8535 15.3545 17.6995C15.0605 17.6062 14.6837 17.4813 14.2018 17.2737C12.173 16.3975 10.8488 14.3547 10.7473 14.2205C10.6458 14.0852 9.92133 13.1238 9.92133 12.1287C9.92133 11.1335 10.444 10.6435 10.6295 10.4417C10.815 10.2398 11.0332 10.1885 11.1685 10.1885L11.5558 10.1955C11.6795 10.2013 11.8463 10.1488 12.0108 10.5432C12.1788 10.948 12.5837 11.9432 12.6338 12.0447C12.684 12.1462 12.7178 12.264 12.6502 12.3993C12.5825 12.5347 12.5487 12.6187 12.4483 12.7365L12.145 13.0912C12.0435 13.1915 11.9385 13.3012 12.0563 13.5042C12.1742 13.7072 12.5802 14.3687 13.181 14.9053C13.9533 15.5948 14.6055 15.8083 14.8073 15.9087C15.0092 16.009 15.127 15.9927 15.246 15.8585C15.3638 15.7232 15.7512 15.2682 15.8865 15.0652C16.0218 14.8633 16.156 14.896 16.3415 14.9637C16.527 15.0313 17.521 15.5202 17.7228 15.6217C17.9247 15.7232 18.06 15.7733 18.1102 15.8573C18.1627 15.9413 18.1627 16.3462 17.9935 16.8187ZM14 0C6.2685 0 0 6.2685 0 14C0 21.7315 6.2685 28 14 28C21.7315 28 28 21.7315 28 14C28 6.2685 21.7315 0 14 0ZM14.0338 22.0267C12.6793 22.0267 11.3447 21.686 10.1628 21.042L5.873 22.1667L7.021 17.9725C6.31283 16.7452 5.9395 15.3522 5.94067 13.9265C5.94183 9.464 9.5725 5.83333 14.0338 5.83333C16.1992 5.8345 18.2315 6.67683 19.7587 8.20633C21.287 9.73583 22.1282 11.7693 22.127 13.9323C22.1258 18.3948 18.4952 22.0267 14.0338 22.0267Z" fill="#08913F"/>
</svg>
